<svg xmlns="http://www.w3.org/2000/svg" width="268.933" height="41.373" viewBox="0 0 268.933 41.373">
  <g id="Group_10" data-name="Group 10" transform="translate(0.156 -128.968)">
    <g id="BAE_System" data-name="BAE System" transform="translate(-0.156 128.968)">
      <rect id="Rectangle_18" data-name="Rectangle 18" width="268.933" height="41.373" fill="#ed1a3b"/>
      <path id="Path_29" data-name="Path 29" d="M1691.58,86.679c1.1,4.423,4.9,6.211,9.181,6.211s9.086-1.963,9.086-6.86a5.678,5.678,0,0,0-3.021-5.225,21.749,21.749,0,0,0-5.773-1.635c-.73-.182-2.255-.387-2.255-1.46s1.19-1.284,2.021-1.284a3.122,3.122,0,0,1,3.3,2.043l5.167-1.569c-1.248-3.54-4.656-4.992-8.2-4.992a10.3,10.3,0,0,0-5.838,1.547,6.284,6.284,0,0,0-2.613,5.109c0,4.846,4.539,5.882,8.378,6.627.912.175,2.5.416,2.5,1.664,0,1.124-1.606,1.248-2.408,1.248-1.81,0-3.175-.657-3.715-2.467l-5.795,1.044" transform="translate(-1454.641 -61.829)" fill="#fff" fill-rule="evenodd"/>
      <path id="Path_30" data-name="Path 30" d="M1511.011,74.039h-8.232l-2.8,10.816-2.978-10.816h-8.159V94.422h4.693V79.862l3.89,14.56h3.985l3.715-14.56.051,14.56h5.831Z" transform="translate(-1280.305 -63.668)" fill="#fff" fill-rule="evenodd"/>
      <path id="Path_31" data-name="Path 31" d="M1340.019,89.6h-9.181V86.3h7.437V81.761h-7.437V78.776h9.181V74.091h-15.3V94.467h15.3Z" transform="translate(-1139.169 -63.713)" fill="#fff" fill-rule="evenodd"/>
      <path id="Path_32" data-name="Path 32" d="M1183.058,78.943h4.189v-4.9h-14.406v4.9h4.284V94.422h5.933Z" transform="translate(-1008.562 -63.668)" fill="#fff" fill-rule="evenodd"/>
      <path id="Path_33" data-name="Path 33" d="M1002.308,86.68c1.1,4.423,4.9,6.211,9.181,6.211s9.086-1.963,9.086-6.86a5.671,5.671,0,0,0-3.029-5.225,21.7,21.7,0,0,0-5.766-1.635c-.73-.182-2.255-.387-2.255-1.46s1.19-1.284,2-1.284a3.122,3.122,0,0,1,3.3,2.043l5.167-1.569c-1.241-3.54-4.656-4.992-8.2-4.992a10.312,10.312,0,0,0-5.838,1.547,6.327,6.327,0,0,0-2.613,5.109c0,4.846,4.547,5.882,8.371,6.627.927.175,2.5.416,2.5,1.664,0,1.124-1.6,1.248-2.408,1.248-1.8,0-3.175-.657-3.715-2.467l-5.787,1.044" transform="translate(-861.915 -61.83)" fill="#fff" fill-rule="evenodd"/>
      <path id="Path_34" data-name="Path 34" d="M858.074,74.039H852.6l-3.408,6.714-3.569-6.714h-6.867l6.867,11.772v8.612h6.065V85.81Z" transform="translate(-721.272 -63.668)" fill="#fff" fill-rule="evenodd"/>
      <path id="Path_35" data-name="Path 35" d="M677.757,86.677c1.1,4.423,4.9,6.211,9.181,6.211s9.093-1.963,9.093-6.86a5.649,5.649,0,0,0-3.007-5.225,21.646,21.646,0,0,0-5.758-1.635c-.774-.182-2.262-.387-2.262-1.46s1.16-1.284,2-1.284a3.132,3.132,0,0,1,3.3,2.043l5.16-1.569c-1.241-3.54-4.663-4.992-8.2-4.992a10.275,10.275,0,0,0-5.838,1.547,6.313,6.313,0,0,0-2.62,5.109c0,4.846,4.547,5.882,8.378,6.627.92.175,2.5.416,2.5,1.664,0,1.124-1.613,1.248-2.408,1.248-1.81,0-3.182-.657-3.715-2.467l-5.795,1.044" transform="translate(-582.824 -61.827)" fill="#fff" fill-rule="evenodd"/>
      <path id="Path_36" data-name="Path 36" d="M472.516,89.6h-9.181V86.3h7.415V81.761h-7.415V78.776h9.181V74.091H457.2V94.467h15.311Z" transform="translate(-393.164 -63.713)" fill="#fff" fill-rule="evenodd"/>
      <path id="Path_37" data-name="Path 37" d="M285.007,94.422h6.379l-6.379-20.383h-6.6l-6.32,20.383h5.087l1.233-4h5.444Z" transform="translate(-233.972 -63.668)" fill="#fff" fill-rule="evenodd"/>
      <path id="Path_38" data-name="Path 38" d="M109.781,94.467h9.341c1.839,0,4.043,0,5.6-1.153a5.692,5.692,0,0,0,2.095-4.751,4.583,4.583,0,0,0-3.956-4.642,4.547,4.547,0,0,0,3.452-4.481,5.393,5.393,0,0,0-2.189-4.313,7.241,7.241,0,0,0-4.379-1.036h-9.969V94.467" transform="translate(-94.404 -63.713)" fill="#fff" fill-rule="evenodd"/>
      <path id="Path_39" data-name="Path 39" d="M324.655,122.838l1.657-5.919,1.679,5.919Z" transform="translate(-279.18 -100.543)" fill="#ed1a3b" fill-rule="evenodd"/>
      <path id="Path_40" data-name="Path 40" d="M150.734,108.708v-3.459h2.438c1.2,0,2.438.2,2.438,1.73a1.832,1.832,0,0,1-.591,1.328,2.5,2.5,0,0,1-1.752.4h-2.532" transform="translate(-129.621 -90.506)" fill="#ed1a3b" fill-rule="evenodd"/>
      <path id="Path_41" data-name="Path 41" d="M150.734,164.462v-3.686h2.474a4.2,4.2,0,0,1,1.81.27,1.773,1.773,0,0,1,.234,3.029,2.73,2.73,0,0,1-1.81.387h-2.708" transform="translate(-129.621 -138.247)" fill="#ed1a3b" fill-rule="evenodd"/>
    </g>
  </g>
</svg>
