<svg xmlns="http://www.w3.org/2000/svg" width="28" height="28" viewBox="0 0 28 28">
  <g id="linkedin" transform="translate(-6 -6)">
    <path id="Path_3" data-name="Path 3" d="M34,30.111A3.888,3.888,0,0,1,30.111,34H9.889A3.889,3.889,0,0,1,6,30.111V9.889A3.889,3.889,0,0,1,9.889,6H30.111A3.888,3.888,0,0,1,34,9.889Z" transform="translate(0 0)" fill="#0288d1"/>
    <path id="Path_4" data-name="Path 4" d="M12,16.667h3.333V28H12Zm1.657-1.333h-.019A1.6,1.6,0,0,1,12,13.666a1.667,1.667,0,1,1,1.657,1.667ZM28,28H24.667V21.934a2.174,2.174,0,0,0-2.128-2.465,1.911,1.911,0,0,0-1.8,1.327,4.808,4.808,0,0,0-.067,1.2v6H17.333V16.667h3.333v1.744a3.372,3.372,0,0,1,3.159-1.744c2.385,0,4.174,1.5,4.174,4.849V28Z" fill="#292828"/>
  </g>
</svg>
