<svg xmlns="http://www.w3.org/2000/svg" width="351" height="351" viewBox="0 0 351 351">
  <g id="CIO_Logo" data-name="CIO Logo" transform="translate(-826 -2343.679)">
    <g id="Ellipse_29" data-name="Ellipse 29" transform="translate(826 2343.679)" fill="none" stroke="#152e50" stroke-width="5">
      <circle cx="175.5" cy="175.5" r="175.5" stroke="none"/>
      <circle cx="175.5" cy="175.5" r="173" fill="none"/>
    </g>
    <g id="Bird" transform="translate(882.107 2472.932)">
      <path id="Path_53" data-name="Path 53" d="M-11.5-11.739,12.251-26.786-5.985,95.2-26.23,84.813Z" transform="translate(75.604 73.385)" fill="#b2afaf"/>
      <path id="Path_54" data-name="Path 54" d="M-19.071,71.733,5.339,56.108-7.276,138.484-26.23,121.7Z" transform="translate(47.516 13.463)" fill="#b2afaf"/>
      <path id="Path_55" data-name="Path 55" d="M1044.879,9193.808l17.133-10.9-5.285,30.317Z" transform="translate(-1044.879 -9089.855)" fill="#b2afaf"/>
      <path id="Path_56" data-name="Path 56" d="M-2.484-6.739-26.23-21.786-7.995,97.4,12.251,87Z" transform="translate(183.32 68.718)" fill="#b2afaf"/>
      <path id="Path_57" data-name="Path 57" d="M-.821,81.733-25.23,66.108l13.176,77.882L5.777,125.524Z" transform="translate(217.851 3.439)" fill="#b2afaf"/>
      <path id="Path_58" data-name="Path 58" d="M1059.375,9209.222l-11.85-8.784,4.4,21.851Z" transform="translate(-819.09 -9107.648)" fill="#b2afaf"/>
      <path id="Path_59" data-name="Path 59" d="M1206.642,9193.761l4.24-24.062h36.488l3.7,24.3,20.459-6.358L1249.394,9042.3s8.55-5.564,18.714-3.859c0,0,1.891-16.066-16.258-16.256a80.755,80.755,0,0,0-17.616-4.606c-10.687-1.653-23.753,3.727-23.753,3.727l-25.653,167.566A58.484,58.484,0,0,0,1206.642,9193.761Z" transform="translate(-1105.649 -9017.262)" fill="#b2afaf"/>
    </g>
    <g id="Inner_Stars" data-name="Inner Stars" transform="translate(895.68 2408.091)">
      <path id="Polygon_15" data-name="Polygon 15" d="M6.371,2.4a1,1,0,0,1,1.864,0l.848,2.183a1,1,0,0,0,.855.635l2.324.181a1,1,0,0,1,.587,1.744L11,8.789a1,1,0,0,0-.309.974l.564,2.42a1,1,0,0,1-1.52,1.065L7.849,12.022a1,1,0,0,0-1.091,0L4.874,13.248a1,1,0,0,1-1.52-1.065l.564-2.42a1,1,0,0,0-.309-.974L1.756,7.141A1,1,0,0,1,2.343,5.4l2.324-.181a1,1,0,0,0,.855-.635Z" transform="matrix(0.995, 0.105, -0.105, 0.995, 197.957, 81.385)" fill="#b2afaf"/>
      <path id="Polygon_16" data-name="Polygon 16" d="M6.371,2.4a1,1,0,0,1,1.864,0l.848,2.183a1,1,0,0,0,.855.635l2.324.181a1,1,0,0,1,.587,1.744L11,8.789a1,1,0,0,0-.309.974l.564,2.42a1,1,0,0,1-1.52,1.065L7.849,12.022a1,1,0,0,0-1.091,0L4.874,13.248a1,1,0,0,1-1.52-1.065l.564-2.42a1,1,0,0,0-.309-.974L1.756,7.141A1,1,0,0,1,2.343,5.4l2.324-.181a1,1,0,0,0,.855-.635Z" transform="translate(188.182 59.602) rotate(-8)" fill="#b2afaf"/>
      <path id="Polygon_17" data-name="Polygon 17" d="M6.371,2.4a1,1,0,0,1,1.864,0l.848,2.183a1,1,0,0,0,.855.635l2.324.181a1,1,0,0,1,.587,1.744L11,8.789a1,1,0,0,0-.309.974l.564,2.42a1,1,0,0,1-1.52,1.065L7.849,12.022a1,1,0,0,0-1.091,0L4.874,13.248a1,1,0,0,1-1.52-1.065l.564-2.42a1,1,0,0,0-.309-.974L1.756,7.141A1,1,0,0,1,2.343,5.4l2.324-.181a1,1,0,0,0,.855-.635Z" transform="matrix(0.921, -0.391, 0.391, 0.921, 173.373, 40.602)" fill="#b2afaf"/>
      <path id="Polygon_18" data-name="Polygon 18" d="M6.371,2.4a1,1,0,0,1,1.864,0l.848,2.183a1,1,0,0,0,.855.635l2.324.181a1,1,0,0,1,.587,1.744L11,8.789a1,1,0,0,0-.309.974l.564,2.42a1,1,0,0,1-1.52,1.065L7.849,12.022a1,1,0,0,0-1.091,0L4.874,13.248a1,1,0,0,1-1.52-1.065l.564-2.42a1,1,0,0,0-.309-.974L1.756,7.141A1,1,0,0,1,2.343,5.4l2.324-.181a1,1,0,0,0,.855-.635Z" transform="matrix(0.799, -0.602, 0.602, 0.799, 154.183, 26.181)" fill="#b2afaf"/>
      <path id="Polygon_19" data-name="Polygon 19" d="M6.371,2.4a1,1,0,0,1,1.864,0l.848,2.183a1,1,0,0,0,.855.635l2.324.181a1,1,0,0,1,.587,1.744L11,8.789a1,1,0,0,0-.309.974l.564,2.42a1,1,0,0,1-1.52,1.065L7.849,12.022a1,1,0,0,0-1.091,0L4.874,13.248a1,1,0,0,1-1.52-1.065l.564-2.42a1,1,0,0,0-.309-.974L1.756,7.141A1,1,0,0,1,2.343,5.4l2.324-.181a1,1,0,0,0,.855-.635Z" transform="matrix(0.616, -0.788, 0.788, 0.616, 132.251, 17.08)" fill="#b2afaf"/>
      <path id="Polygon_20" data-name="Polygon 20" d="M6.371,2.4a1,1,0,0,1,1.864,0l.848,2.183a1,1,0,0,0,.855.635l2.324.181a1,1,0,0,1,.587,1.744L11,8.789a1,1,0,0,0-.309.974l.564,2.42a1,1,0,0,1-1.52,1.065L7.849,12.022a1,1,0,0,0-1.091,0L4.874,13.248a1,1,0,0,1-1.52-1.065l.564-2.42a1,1,0,0,0-.309-.974L1.756,7.141A1,1,0,0,1,2.343,5.4l2.324-.181a1,1,0,0,0,.855-.635Z" transform="translate(108.278 13.678) rotate(-68)" fill="#b2afaf"/>
      <path id="Polygon_22" data-name="Polygon 22" d="M6.371,2.4a1,1,0,0,1,1.864,0l.848,2.183a1,1,0,0,0,.855.635l2.324.181a1,1,0,0,1,.587,1.744L11,8.789a1,1,0,0,0-.309.974l.564,2.42a1,1,0,0,1-1.52,1.065L7.849,12.022a1,1,0,0,0-1.091,0L4.874,13.248a1,1,0,0,1-1.52-1.065l.564-2.42a1,1,0,0,0-.309-.974L1.756,7.141A1,1,0,0,1,2.343,5.4l2.324-.181a1,1,0,0,0,.855-.635Z" transform="translate(71.13 5.331) rotate(49)" fill="#b2afaf"/>
      <path id="Polygon_23" data-name="Polygon 23" d="M6.371,2.4a1,1,0,0,1,1.864,0l.848,2.183a1,1,0,0,0,.855.635l2.324.181a1,1,0,0,1,.587,1.744L11,8.789a1,1,0,0,0-.309.974l.564,2.42a1,1,0,0,1-1.52,1.065L7.849,12.022a1,1,0,0,0-1.091,0L4.874,13.248a1,1,0,0,1-1.52-1.065l.564-2.42a1,1,0,0,0-.309-.974L1.756,7.141A1,1,0,0,1,2.343,5.4l2.324-.181a1,1,0,0,0,.855-.635Z" transform="matrix(0.407, 0.914, -0.914, 0.407, 98.454, 0)" fill="#b2afaf"/>
      <path id="Polygon_24" data-name="Polygon 24" d="M6.371,2.4a1,1,0,0,1,1.864,0l.848,2.183a1,1,0,0,0,.855.635l2.324.181a1,1,0,0,1,.587,1.744L11,8.789a1,1,0,0,0-.309.974l.564,2.42a1,1,0,0,1-1.52,1.065L7.849,12.022a1,1,0,0,0-1.091,0L4.874,13.248a1,1,0,0,1-1.52-1.065l.564-2.42a1,1,0,0,0-.309-.974L1.756,7.141A1,1,0,0,1,2.343,5.4l2.324-.181a1,1,0,0,0,.855-.635Z" transform="translate(46.132 17.744) rotate(34)" fill="#b2afaf"/>
      <path id="Polygon_25" data-name="Polygon 25" d="M6.371,2.4a1,1,0,0,1,1.864,0l.848,2.183a1,1,0,0,0,.855.635l2.324.181a1,1,0,0,1,.587,1.744L11,8.789a1,1,0,0,0-.309.974l.564,2.42a1,1,0,0,1-1.52,1.065L7.849,12.022a1,1,0,0,0-1.091,0L4.874,13.248a1,1,0,0,1-1.52-1.065l.564-2.42a1,1,0,0,0-.309-.974L1.756,7.141A1,1,0,0,1,2.343,5.4l2.324-.181a1,1,0,0,0,.855-.635Z" transform="matrix(0.927, 0.375, -0.375, 0.927, 25.529, 35.087)" fill="#b2afaf"/>
      <path id="Polygon_26" data-name="Polygon 26" d="M6.371,2.4a1,1,0,0,1,1.864,0l.848,2.183a1,1,0,0,0,.855.635l2.324.181a1,1,0,0,1,.587,1.744L11,8.789a1,1,0,0,0-.309.974l.564,2.42a1,1,0,0,1-1.52,1.065L7.849,12.022a1,1,0,0,0-1.091,0L4.874,13.248a1,1,0,0,1-1.52-1.065l.564-2.42a1,1,0,0,0-.309-.974L1.756,7.141A1,1,0,0,1,2.343,5.4l2.324-.181a1,1,0,0,0,.855-.635Z" transform="translate(10.028 57.802) rotate(7)" fill="#b2afaf"/>
      <path id="Polygon_27" data-name="Polygon 27" d="M6.371,2.4a1,1,0,0,1,1.864,0l.848,2.183a1,1,0,0,0,.855.635l2.324.181a1,1,0,0,1,.587,1.744L11,8.789a1,1,0,0,0-.309.974l.564,2.42a1,1,0,0,1-1.52,1.065L7.849,12.022a1,1,0,0,0-1.091,0L4.874,13.248a1,1,0,0,1-1.52-1.065l.564-2.42a1,1,0,0,0-.309-.974L1.756,7.141A1,1,0,0,1,2.343,5.4l2.324-.181a1,1,0,0,0,.855-.635Z" transform="translate(0 83.318) rotate(-8)" fill="#b2afaf"/>
    </g>
    <g id="U.S._CHIEF_INFORMATION_OFFICERS_COUNCIL" data-name="U.S. CHIEF INFORMATION OFFICERS COUNCIL" transform="translate(832.374 2351.416)">
      <text id="U" transform="translate(36.101 224.347) rotate(-108)" fill="#152e50" font-size="26" font-family="SourceSansPro-Bold, Source Sans Pro" font-weight="700"><tspan x="0" y="0">U</tspan></text>
      <text id="C" transform="translate(25.626 168.263) rotate(-90)" fill="#152e50" font-size="26" font-family="SourceSansPro-Bold, Source Sans Pro" font-weight="700"><tspan x="0" y="0">C</tspan></text>
      <text id="S" transform="matrix(-0.105, -0.995, 0.995, -0.105, 27.673, 199.047)" fill="#152e50" font-size="26" font-family="SourceSansPro-Bold, Source Sans Pro" font-weight="700"><tspan x="0" y="0">S</tspan></text>
      <text id="H" transform="translate(25.559 151.768) rotate(-79)" fill="#152e50" font-size="26" font-family="SourceSansPro-Bold, Source Sans Pro" font-weight="700"><tspan x="0" y="0">H</tspan></text>
      <text id="I" transform="matrix(0.259, -0.966, 0.966, 0.259, 29.469, 133.07)" fill="#152e50" font-size="26" font-family="SourceSansPro-Bold, Source Sans Pro" font-weight="700"><tspan x="0" y="0">I</tspan></text>
      <text id="E" transform="translate(31.588 124.95) rotate(-68)" fill="#152e50" font-size="26" font-family="SourceSansPro-Bold, Source Sans Pro" font-weight="700"><tspan x="0" y="0">E</tspan></text>
      <text id="F" transform="matrix(0.454, -0.891, 0.891, 0.454, 36.643, 109.82)" fill="#152e50" font-size="25" font-family="SourceSansPro-Bold, Source Sans Pro" font-weight="700"><tspan x="0" y="0">F</tspan></text>
      <text id="_." data-name="." transform="translate(23.626 205.263)" fill="#152e50" font-size="27" font-family="SourceSansPro-Bold, Source Sans Pro" font-weight="700"><tspan x="0" y="0">.</tspan></text>
      <text id="_.-2" data-name="." transform="translate(19.626 181.263)" fill="#152e50" font-size="27" font-family="SourceSansPro-Bold, Source Sans Pro" font-weight="700"><tspan x="0" y="0">.</tspan></text>
      <text id="N" transform="matrix(0.629, -0.777, 0.777, 0.629, 51.353, 84.437)" fill="#152e50" font-size="26" font-family="SourceSansPro-Bold, Source Sans Pro" font-weight="700"><tspan x="0" y="0">N</tspan></text>
      <text id="C-2" data-name="C" transform="matrix(0.407, 0.914, -0.914, 0.407, 301.291, 112.064)" fill="#152e50" font-size="26" font-family="SourceSansPro-Bold, Source Sans Pro" font-weight="700"><tspan x="0" y="0">C</tspan></text>
      <text id="U-2" data-name="U" transform="matrix(0.035, 0.999, -0.999, 0.035, 312.237, 144.565)" fill="#152e50" font-size="26" font-family="SourceSansPro-Bold, Source Sans Pro" font-weight="700"><tspan x="0" y="0">U</tspan></text>
      <text id="I-2" data-name="I" transform="translate(46.145 91.902) rotate(-56)" fill="#152e50" font-size="26" font-family="SourceSansPro-Bold, Source Sans Pro" font-weight="700"><tspan x="0" y="0">I</tspan></text>
      <text id="F-2" data-name="F" transform="translate(63.143 70.028) rotate(-42)" fill="#152e50" font-size="25" font-family="SourceSansPro-Bold, Source Sans Pro" font-weight="700"><tspan x="0" y="0">F</tspan></text>
      <text id="O" transform="matrix(0.174, 0.985, -0.985, 0.174, 307.62, 125.582)" fill="#152e50" font-size="26" font-family="SourceSansPro-Bold, Source Sans Pro" font-weight="700"><tspan x="0" y="0">O</tspan></text>
      <text id="N-2" data-name="N" transform="matrix(-0.017, 1, -1, -0.017, 313.28, 164.471)" fill="#152e50" font-size="26" font-family="SourceSansPro-Bold, Source Sans Pro" font-weight="700"><tspan x="0" y="0">N</tspan></text>
      <text id="L" transform="translate(308.126 207.681) rotate(108)" fill="#152e50" font-size="26" font-family="SourceSansPro-Bold, Source Sans Pro" font-weight="700"><tspan x="0" y="0">L</tspan></text>
      <text id="C-3" data-name="C" transform="translate(313.188 183.161) rotate(99)" fill="#152e50" font-size="26" font-family="SourceSansPro-Bold, Source Sans Pro" font-weight="700"><tspan x="0" y="0">C</tspan></text>
      <text id="I-3" data-name="I" transform="translate(309.72 199.026) rotate(103)" fill="#152e50" font-size="26" font-family="SourceSansPro-Bold, Source Sans Pro" font-weight="700"><tspan x="0" y="0">I</tspan></text>
      <text id="O-2" data-name="O" transform="translate(75.15 60.547) rotate(-40)" fill="#152e50" font-size="26" font-family="SourceSansPro-Bold, Source Sans Pro" font-weight="700"><tspan x="0" y="0">O</tspan></text>
      <text id="R" transform="matrix(0.883, -0.469, 0.469, 0.883, 90.341, 48.61)" fill="#152e50" font-size="26" font-family="SourceSansPro-Bold, Source Sans Pro" font-weight="700"><tspan x="0" y="0">R</tspan></text>
      <text id="M" transform="translate(105.351 40.401) rotate(-21)" fill="#152e50" font-size="26" font-family="SourceSansPro-Bold, Source Sans Pro" font-weight="700"><tspan x="0" y="0">M</tspan></text>
      <text id="A" transform="matrix(0.978, -0.208, 0.208, 0.978, 125.407, 31.966)" fill="#152e50" font-size="26" font-family="SourceSansPro-Bold, Source Sans Pro" font-weight="700"><tspan x="0" y="0">A</tspan></text>
      <text id="T" transform="matrix(0.995, -0.105, 0.105, 0.995, 138.966, 28.46)" fill="#152e50" font-size="26" font-family="SourceSansPro-Bold, Source Sans Pro" font-weight="700"><tspan x="0" y="0">T</tspan></text>
      <text id="I-4" data-name="I" transform="matrix(1, -0.017, 0.017, 1, 154.444, 26.664)" fill="#152e50" font-size="26" font-family="SourceSansPro-Bold, Source Sans Pro" font-weight="700"><tspan x="0" y="0">I</tspan></text>
      <text id="N-3" data-name="N" transform="translate(183.05 26.52) rotate(7)" fill="#152e50" font-size="26" font-family="SourceSansPro-Bold, Source Sans Pro" font-weight="700"><tspan x="0" y="0">N</tspan></text>
      <text id="O-3" data-name="O" transform="translate(163.626 27.263)" fill="#152e50" font-size="27" font-family="SourceSansPro-Bold, Source Sans Pro" font-weight="700"><tspan x="0" y="0">O</tspan></text>
      <text id="E-2" data-name="E" transform="matrix(0.695, 0.719, -0.719, 0.695, 271.168, 67.864)" fill="#152e50" font-size="26" font-family="SourceSansPro-Bold, Source Sans Pro" font-weight="700"><tspan x="0" y="0">E</tspan></text>
      <text id="R-2" data-name="R" transform="matrix(0.602, 0.799, -0.799, 0.602, 281.797, 79.249)" fill="#152e50" font-size="26" font-family="SourceSansPro-Bold, Source Sans Pro" font-weight="700"><tspan x="0" y="0">R</tspan></text>
      <text id="S-2" data-name="S" transform="matrix(0.53, 0.848, -0.848, 0.53, 291.335, 93.515)" fill="#152e50" font-size="26" font-family="SourceSansPro-Bold, Source Sans Pro" font-weight="700"><tspan x="0" y="0">S</tspan></text>
      <text id="F-3" data-name="F" transform="matrix(0.891, 0.454, -0.454, 0.891, 225.665, 36.306)" fill="#152e50" font-size="25" font-family="SourceSansPro-Bold, Source Sans Pro" font-weight="700"><tspan x="0" y="0">F</tspan></text>
      <text id="O-4" data-name="O" transform="matrix(0.899, 0.438, -0.438, 0.899, 206.982, 28.811)" fill="#152e50" font-size="26" font-family="SourceSansPro-Bold, Source Sans Pro" font-weight="700"><tspan x="0" y="0">O</tspan></text>
      <text id="I-5" data-name="I" transform="matrix(0.788, 0.616, -0.616, 0.788, 251.401, 51.33)" fill="#152e50" font-size="26" font-family="SourceSansPro-Bold, Source Sans Pro" font-weight="700"><tspan x="0" y="0">I</tspan></text>
      <text id="C-4" data-name="C" transform="matrix(0.695, 0.719, -0.719, 0.695, 258.816, 55.101)" fill="#152e50" font-size="26" font-family="SourceSansPro-Bold, Source Sans Pro" font-weight="700"><tspan x="0" y="0">C</tspan></text>
      <text id="F-4" data-name="F" transform="matrix(0.839, 0.545, -0.545, 0.839, 239.423, 42.492)" fill="#152e50" font-size="25" font-family="SourceSansPro-Bold, Source Sans Pro" font-weight="700"><tspan x="0" y="0">F</tspan></text>
    </g>
    <g id="outter_stars" data-name="outter stars" transform="translate(860.788 2586.73)">
      <path id="Polygon_28" data-name="Polygon 28" d="M6.371,2.4a1,1,0,0,1,1.864,0l.848,2.183a1,1,0,0,0,.855.635l2.324.181a1,1,0,0,1,.587,1.744L11,8.789a1,1,0,0,0-.309.974l.564,2.42a1,1,0,0,1-1.52,1.065L7.849,12.022a1,1,0,0,0-1.091,0L4.874,13.248a1,1,0,0,1-1.52-1.065l.564-2.42a1,1,0,0,0-.309-.974L1.756,7.141A1,1,0,0,1,2.343,5.4l2.324-.181a1,1,0,0,0,.855-.635Z" transform="matrix(0.914, -0.407, 0.407, 0.914, 263.095, 5.941)" fill="#152e50"/>
      <path id="Polygon_29" data-name="Polygon 29" d="M6.371,2.4a1,1,0,0,1,1.864,0l.848,2.183a1,1,0,0,0,.855.635l2.324.181a1,1,0,0,1,.587,1.744L11,8.789a1,1,0,0,0-.309.974l.564,2.42a1,1,0,0,1-1.52,1.065L7.849,12.022a1,1,0,0,0-1.091,0L4.874,13.248a1,1,0,0,1-1.52-1.065l.564-2.42a1,1,0,0,0-.309-.974L1.756,7.141A1,1,0,0,1,2.343,5.4l2.324-.181a1,1,0,0,0,.855-.635Z" transform="matrix(0.891, 0.454, -0.454, 0.891, 164.922, 73.58)" fill="#152e50"/>
      <path id="Polygon_30" data-name="Polygon 30" d="M6.371,2.4a1,1,0,0,1,1.864,0l.848,2.183a1,1,0,0,0,.855.635l2.324.181a1,1,0,0,1,.587,1.744L11,8.789a1,1,0,0,0-.309.974l.564,2.42a1,1,0,0,1-1.52,1.065L7.849,12.022a1,1,0,0,0-1.091,0L4.874,13.248a1,1,0,0,1-1.52-1.065l.564-2.42a1,1,0,0,0-.309-.974L1.756,7.141A1,1,0,0,1,2.343,5.4l2.324-.181a1,1,0,0,0,.855-.635Z" transform="matrix(0.966, -0.259, 0.259, 0.966, 79.898, 71.336)" fill="#152e50"/>
      <path id="Polygon_31" data-name="Polygon 31" d="M6.371,2.4a1,1,0,0,1,1.864,0l.848,2.183a1,1,0,0,0,.855.635l2.324.181a1,1,0,0,1,.587,1.744L11,8.789a1,1,0,0,0-.309.974l.564,2.42a1,1,0,0,1-1.52,1.065L7.849,12.022a1,1,0,0,0-1.091,0L4.874,13.248a1,1,0,0,1-1.52-1.065l.564-2.42a1,1,0,0,0-.309-.974L1.756,7.141A1,1,0,0,1,2.343,5.4l2.324-.181a1,1,0,0,0,.855-.635Z" transform="matrix(0.809, 0.588, -0.588, 0.809, 140.262, 75.449)" fill="#152e50"/>
      <path id="Polygon_32" data-name="Polygon 32" d="M6.371,2.4a1,1,0,0,1,1.864,0l.848,2.183a1,1,0,0,0,.855.635l2.324.181a1,1,0,0,1,.587,1.744L11,8.789a1,1,0,0,0-.309.974l.564,2.42a1,1,0,0,1-1.52,1.065L7.849,12.022a1,1,0,0,0-1.091,0L4.874,13.248a1,1,0,0,1-1.52-1.065l.564-2.42a1,1,0,0,0-.309-.974L1.756,7.141A1,1,0,0,1,2.343,5.4l2.324-.181a1,1,0,0,0,.855-.635Z" transform="matrix(0.995, -0.105, 0.105, 0.995, 57.083, 59.156)" fill="#152e50"/>
      <path id="Polygon_33" data-name="Polygon 33" d="M6.371,2.4a1,1,0,0,1,1.864,0l.848,2.183a1,1,0,0,0,.855.635l2.324.181a1,1,0,0,1,.587,1.744L11,8.789a1,1,0,0,0-.309.974l.564,2.42a1,1,0,0,1-1.52,1.065L7.849,12.022a1,1,0,0,0-1.091,0L4.874,13.248a1,1,0,0,1-1.52-1.065l.564-2.42a1,1,0,0,0-.309-.974L1.756,7.141A1,1,0,0,1,2.343,5.4l2.324-.181a1,1,0,0,0,.855-.635Z" transform="matrix(0.883, -0.469, 0.469, 0.883, 104.641, 80.374)" fill="#152e50"/>
      <path id="Polygon_34" data-name="Polygon 34" d="M6.371,2.4a1,1,0,0,1,1.864,0l.848,2.183a1,1,0,0,0,.855.635l2.324.181a1,1,0,0,1,.587,1.744L11,8.789a1,1,0,0,0-.309.974l.564,2.42a1,1,0,0,1-1.52,1.065L7.849,12.022a1,1,0,0,0-1.091,0L4.874,13.248a1,1,0,0,1-1.52-1.065l.564-2.42a1,1,0,0,0-.309-.974L1.756,7.141A1,1,0,0,1,2.343,5.4l2.324-.181a1,1,0,0,0,.855-.635Z" transform="translate(19.226 23.362) rotate(13)" fill="#152e50"/>
      <path id="Polygon_38" data-name="Polygon 38" d="M6.371,2.4a1,1,0,0,1,1.864,0l.848,2.183a1,1,0,0,0,.855.635l2.324.181a1,1,0,0,1,.587,1.744L11,8.789a1,1,0,0,0-.309.974l.564,2.42a1,1,0,0,1-1.52,1.065L7.849,12.022a1,1,0,0,0-1.091,0L4.874,13.248a1,1,0,0,1-1.52-1.065l.564-2.42a1,1,0,0,0-.309-.974L1.756,7.141A1,1,0,0,1,2.343,5.4l2.324-.181a1,1,0,0,0,.855-.635Z" transform="matrix(0.966, 0.259, -0.259, 0.966, 188.625, 67.555)" fill="#152e50"/>
      <path id="Polygon_44" data-name="Polygon 44" d="M6.371,2.4a1,1,0,0,1,1.864,0l.848,2.183a1,1,0,0,0,.855.635l2.324.181a1,1,0,0,1,.587,1.744L11,8.789a1,1,0,0,0-.309.974l.564,2.42a1,1,0,0,1-1.52,1.065L7.849,12.022a1,1,0,0,0-1.091,0L4.874,13.248a1,1,0,0,1-1.52-1.065l.564-2.42a1,1,0,0,0-.309-.974L1.756,7.141A1,1,0,0,1,2.343,5.4l2.324-.181a1,1,0,0,0,.855-.635Z" transform="translate(249.486 25.784) rotate(-11)" fill="#152e50"/>
      <path id="Polygon_45" data-name="Polygon 45" d="M6.371,2.4a1,1,0,0,1,1.864,0l.848,2.183a1,1,0,0,0,.855.635l2.324.181a1,1,0,0,1,.587,1.744L11,8.789a1,1,0,0,0-.309.974l.564,2.42a1,1,0,0,1-1.52,1.065L7.849,12.022a1,1,0,0,0-1.091,0L4.874,13.248a1,1,0,0,1-1.52-1.065l.564-2.42a1,1,0,0,0-.309-.974L1.756,7.141A1,1,0,0,1,2.343,5.4l2.324-.181a1,1,0,0,0,.855-.635Z" transform="translate(231.641 43.254) rotate(-3)" fill="#152e50"/>
      <path id="Polygon_46" data-name="Polygon 46" d="M6.371,2.4a1,1,0,0,1,1.864,0l.848,2.183a1,1,0,0,0,.855.635l2.324.181a1,1,0,0,1,.587,1.744L11,8.789a1,1,0,0,0-.309.974l.564,2.42a1,1,0,0,1-1.52,1.065L7.849,12.022a1,1,0,0,0-1.091,0L4.874,13.248a1,1,0,0,1-1.52-1.065l.564-2.42a1,1,0,0,0-.309-.974L1.756,7.141A1,1,0,0,1,2.343,5.4l2.324-.181a1,1,0,0,0,.855-.635Z" transform="matrix(0.995, 0.105, -0.105, 0.995, 210.768, 57.629)" fill="#152e50"/>
      <path id="Polygon_47" data-name="Polygon 47" d="M6.371,2.4a1,1,0,0,1,1.864,0l.848,2.183a1,1,0,0,0,.855.635l2.324.181a1,1,0,0,1,.587,1.744L11,8.789a1,1,0,0,0-.309.974l.564,2.42a1,1,0,0,1-1.52,1.065L7.849,12.022a1,1,0,0,0-1.091,0L4.874,13.248a1,1,0,0,1-1.52-1.065l.564-2.42a1,1,0,0,0-.309-.974L1.756,7.141A1,1,0,0,1,2.343,5.4l2.324-.181a1,1,0,0,0,.855-.635Z" transform="matrix(0.999, 0.035, -0.035, 0.999, 36.719, 42.934)" fill="#152e50"/>
      <path id="Polygon_48" data-name="Polygon 48" d="M6.371,2.4a1,1,0,0,1,1.864,0l.848,2.183a1,1,0,0,0,.855.635l2.324.181a1,1,0,0,1,.587,1.744L11,8.789a1,1,0,0,0-.309.974l.564,2.42a1,1,0,0,1-1.52,1.065L7.849,12.022a1,1,0,0,0-1.091,0L4.874,13.248a1,1,0,0,1-1.52-1.065l.564-2.42a1,1,0,0,0-.309-.974L1.756,7.141A1,1,0,0,1,2.343,5.4l2.324-.181a1,1,0,0,0,.855-.635Z" transform="matrix(0.914, 0.407, -0.407, 0.914, 5.941, 0.571)" fill="#152e50"/>
    </g>
    <g id="Ellipse_28" data-name="Ellipse 28" transform="translate(867 2384.679)" fill="none" stroke="#152e50" stroke-width="5">
      <circle cx="134.5" cy="134.5" r="134.5" stroke="none"/>
      <circle cx="134.5" cy="134.5" r="132" fill="none"/>
    </g>
  </g>
</svg>
