<svg xmlns="http://www.w3.org/2000/svg" width="28" height="28" viewBox="0 0 28 28">
  <path id="GitHub" d="M14,0A14.176,14.176,0,0,0,0,14.354,14.317,14.317,0,0,0,9.572,27.973c.7.126.963-.305.963-.682,0-.341-.017-1.471-.017-2.673C7,25.281,6.09,23.738,5.81,22.931A5.218,5.218,0,0,0,4.375,20.9c-.49-.269-1.19-.933-.017-.951A2.8,2.8,0,0,1,6.51,21.424a2.951,2.951,0,0,0,4.077,1.184,3.048,3.048,0,0,1,.892-1.92c-3.115-.359-6.37-1.6-6.37-7.087A5.666,5.666,0,0,1,6.545,9.743a5.279,5.279,0,0,1,.14-3.8s1.173-.377,3.85,1.471a12.885,12.885,0,0,1,7,0c2.677-1.866,3.85-1.471,3.85-1.471a5.279,5.279,0,0,1,.14,3.8A5.633,5.633,0,0,1,22.96,13.6c0,5.508-3.273,6.728-6.388,7.087a3.446,3.446,0,0,1,.945,2.656c0,1.92-.017,3.463-.017,3.947,0,.377.262.825.962.682A14.353,14.353,0,0,0,28,14.354,14.176,14.176,0,0,0,14,0Z" fill-rule="evenodd"/>
</svg>
