<svg id="Eagle_Hill_Consulting-1" data-name="Eagle Hill Consulting-1" xmlns="http://www.w3.org/2000/svg" xmlns:xlink="http://www.w3.org/1999/xlink" width="283.68" height="56.06" viewBox="0 0 283.68 56.06">
  <defs>
    <clipPath id="clip-path">
      <circle id="Ellipse_10" data-name="Ellipse 10" cx="28.03" cy="28.03" r="28.03" transform="translate(0 0)" fill="none"/>
    </clipPath>
    <radialGradient id="radial-gradient" cx="0.87" cy="0.135" r="1.121" gradientUnits="objectBoundingBox">
      <stop offset="0" stop-color="#6215cd"/>
      <stop offset="0.06" stop-color="#5422ca"/>
      <stop offset="0.18" stop-color="#3a64bd"/>
      <stop offset="0.33" stop-color="#5996dc"/>
      <stop offset="0.5" stop-color="#82cc52"/>
      <stop offset="0.68" stop-color="#f1d735"/>
      <stop offset="0.85" stop-color="#dd7d42"/>
      <stop offset="1" stop-color="#cb313e"/>
    </radialGradient>
  </defs>
  <path id="Path_18" data-name="Path 18" d="M70.44,37.27v-19h14v3.54H74.24v4.05h7.61v3.53H74.24V33.7H84.36v3.55Z" fill="#50505a"/>
  <path id="Path_19" data-name="Path 19" d="M93.69,37.27l7.59-19h3.8l7.58,19h-4l-1.14-2.91h-8.6l-1.14,2.91Zm9.59-13.92-2.88,7.21h5.69Z" fill="#50505a"/>
  <path id="Path_20" data-name="Path 20" d="M123.67,34.54a9.23,9.23,0,0,1-2.72-6.8,9.31,9.31,0,0,1,9.47-9.45,10.27,10.27,0,0,1,7,2.53l-2.53,2.77a7,7,0,0,0-4.45-1.52,5.62,5.62,0,0,0-4.12,1.59,5.54,5.54,0,0,0-1.56,4.05,5.66,5.66,0,0,0,1.59,4.2,5.58,5.58,0,0,0,4.12,1.56,5.23,5.23,0,0,0,3.15-.81V29.41h-2.53V25.88h6.33v8.86a10.3,10.3,0,0,1-7,2.53,9.25,9.25,0,0,1-6.75-2.73Z" fill="#50505a"/>
  <path id="Path_21" data-name="Path 21" d="M151.54,18.29V33.72h10.12v3.55H147.74v-19Z" fill="#50505a"/>
  <path id="Path_22" data-name="Path 22" d="M171.21,37.27v-19h13.95v3.54H175v4.05h7.6v3.53H175V33.7h10.12v3.55Z" fill="#50505a"/>
  <path id="Path_23" data-name="Path 23" d="M205.07,37.27v-19h3.8v7.59h8.85V18.27h3.79v19h-3.79V29.42h-8.85v7.85Z" fill="#50505a"/>
  <path id="Path_24" data-name="Path 24" d="M232.09,18.27h3.79v19h-3.79Z" fill="#50505a"/>
  <path id="Path_25" data-name="Path 25" d="M250,18.29V33.72h10.12v3.55H246.2v-19Z" fill="#50505a"/>
  <path id="Path_26" data-name="Path 26" d="M273.56,18.29V33.72h10.12v3.55H269.77v-19Z" fill="#50505a"/>
  <g id="Group_9" data-name="Group 9" clip-path="url(#clip-path)">
    <rect id="Rectangle_17" data-name="Rectangle 17" width="56.06" height="56.06" fill="url(#radial-gradient)"/>
  </g>
  <path id="Path_27" data-name="Path 27" d="M31.3,43.06H21.41a6.64,6.64,0,0,1-6.63-6.64V19.64A6.64,6.64,0,0,1,21.41,13H31.3v5.69H21.41a.94.94,0,0,0-.94.95V36.42a.94.94,0,0,0,.94.95H31.3Z" fill="#fff"/>
  <path id="Path_28" data-name="Path 28" d="M35.6,13h0V24.59a1,1,0,0,1-.94.87H24.9v5.69h9.75a1,1,0,0,1,.94.87v11h0a6.68,6.68,0,0,0,5.69-6.6V19.6A6.68,6.68,0,0,0,35.6,13Z" fill="#fff"/>
</svg>
