<?xml version="1.0" encoding="utf-8"?>
<!-- Generator: Adobe Illustrator 27.0.0, SVG Export Plug-In . SVG Version: 6.00 Build 0)  -->
<svg version="1.1" id="Layer_2_00000131348832318602105950000014079746499981024648_"
	 xmlns="http://www.w3.org/2000/svg" xmlns:xlink="http://www.w3.org/1999/xlink" x="0px" y="0px" viewBox="0 0 93.7 41.3"
	 style="enable-background:new 0 0 93.7 41.3;" xml:space="preserve">
<style type="text/css">
	.st0{fill:#E145FF;}
</style>
<g id="Layer_1-2">
	<g>
		<path class="st0" d="M26.5,0.8L26.5,0.8c1.7,0,3,1.3,3,3V37c0,1.7-1.3,3-3,3l0,0c-1.7,0-3-1.3-3-3V3.8C23.5,2.2,24.9,0.8,26.5,0.8
			z"/>
		<path class="st0" d="M3.5,11.8h13.8c1.4,0,2.5,1.1,2.5,2.5l0,0c0,1.4-1.1,2.5-2.5,2.5H3.5c-1.4,0-2.5-1.1-2.5-2.5l0,0
			C1,12.9,2.1,11.8,3.5,11.8z"/>
		<path class="st0" d="M8.3,6.2h3c0.6,0,1,0.4,1,1v29.3c0,1.7-1.3,3-3,3l0,0c-1.7,0-3-1.3-3-3V8.2C6.3,7.1,7.2,6.2,8.3,6.2z"/>
		<path class="st0" d="M6.3,8.9c0-4.6,2.4-8.4,8-8c1.2,0.1,2.4-0.1,3.5,0.4c0.4,0.2,0.7,0.5,0.9,0.8c0.9,1.3,0.1,3.2-1.4,3.6
			l-0.4,0.1c-0.3,0.1-0.7,0.2-1,0.2c-1.7,0.2-3.1,0.4-3.7,3.2"/>
		<path class="st0" d="M91,11.2L91,11.2c1.2,1.2,1.2,3.1,0,4.2L67.6,38.9c-1.2,1.2-3.1,1.2-4.2,0l0,0c-1.2-1.2-1.2-3.1,0-4.2
			l23.4-23.4C87.9,10,89.8,10,91,11.2z"/>
		<path class="st0" d="M73.2,16.5c0.6,0.6,0.8,1.8,0.6,3.3c0,0.3-0.1,0.5-0.3,0.7L69.6,25c0,0-0.8,0.1-0.6-3.5l-5.7-5.8
			c-1.1-1.1-0.7-3.1,0.4-4.2l0.4-0.4c1.1-1.1,2.7-0.8,3.8,0.2L73.2,16.5L73.2,16.5z"/>
		<path class="st0" d="M81.1,33.3c-0.6-0.6-0.8-1.8-0.6-3.3c0-0.3,0.1-0.5,0.3-0.7l3.9-4.5c0,0,0.8-0.1,0.6,3.5l5.7,5.8
			c1.1,1.1,0.7,3.1-0.4,4.2l-0.4,0.4c-1.1,1.1-2.7,0.8-3.8-0.2L81.1,33.3L81.1,33.3z"/>
		<path class="st0" d="M59.8,27c1.2,0.1,2-0.9,2-2c0-8.2-4.6-14.8-12.8-14.8c-6,0-11.3,3.5-13.3,8.7C32,28.9,38.1,40.2,50,39.3
			c4-0.3,6.6-1.4,8.5-3.3c1.6-1.6-0.1-5.2-2.7-4.7h-0.1c-3,2.1-5.3,2.8-6.5,2.8c-4.5,0-8.1-3-8.2-6.8c0-0.1,0.1-0.2,0.2-0.2h16
			 M40.8,22.5c0.1-4,3.4-7.3,7.5-7.3s7.4,3.2,7.5,7.3c0,0.1-0.1,0.2-0.2,0.2H41C40.9,22.7,40.8,22.6,40.8,22.5L40.8,22.5z"/>
	</g>
</g>
</svg>
